<svg id="Layer_1" data-name="Layer 1" xmlns="http://www.w3.org/2000/svg" viewBox="0 0 1280 1024"><defs><style>.cls-1,.cls-3{fill:#f6eec7;}.cls-2{fill:#f4dada;}.cls-3{stroke:#f4dada;stroke-miterlimit:10;stroke-width:5px;}</style></defs><path class="cls-1" d="M837.68,170.79c-15,0-30.18-.25-45.18-.76a48.54,48.54,0,0,1,16.38-24.83c2.44-2,6.65-3.75,11.12-5.59,7.82-3.22,15.9-6.56,18.23-12.78,2.06-5.49-.62-11-3.22-16.28s-5.42-11.1-3.43-17c3-9,12-15.87,21.26-16.32l1,0c11.53,0,22.38,9.6,23.7,21l1.14,9.86,3.66-9.22a33.13,33.13,0,0,1,25.46-20,30.58,30.58,0,0,1,4.18-.29,33.09,33.09,0,0,1,25.78,12.55L940,94l1.88-3.17c7.23-12.22,14.71-24.85,25.88-33.77,7.94-6.34,17.61-10,26.53-10a29,29,0,0,1,11.7,2.36,24.79,24.79,0,0,1,13.49,16.37c1.56,6,.63,11.63-2.61,15.88l-8.69,11.42,12-7.81a18.2,18.2,0,0,1,9.93-2.8c7.25,0,14,3.68,17.32,9.38a20.22,20.22,0,0,1-8,26.87l-11.71,5.93,13.06-1.21c.56,0,1.13-.08,1.69-.08,9.24,0,18.21,7,20.72,15.74l-10.72,2.07,5.92,11.27A1344.27,1344.27,0,0,1,837.68,170.79Z"/><path class="cls-2" d="M994.29,49.61a26.53,26.53,0,0,1,10.7,2.15c5.66,2.47,10.39,8.25,12.07,14.71.79,3,1.55,8.84-2.18,13.73L997.5,103l24.08-15.61a15.69,15.69,0,0,1,8.57-2.4c6.37,0,12.32,3.19,15.16,8.13a17.73,17.73,0,0,1-7,23.39l-23.4,11.85L1041,126c.48,0,1-.07,1.46-.07,7.25,0,14.3,4.86,17.35,11.35l-4.52.87-6.61,1.27,3.13,6,2.36,4.49.39.74a1342.48,1342.48,0,0,1-216.93,17.69c-13.88,0-27.92-.22-41.82-.65a46.68,46.68,0,0,1,14.62-20.51c2.15-1.77,6.38-3.52,10.48-5.21,8.31-3.43,16.91-7,19.62-14.22,2.44-6.49-.62-12.74-3.31-18.25-2.56-5.23-5-10.17-3.32-15.08,2.69-7.94,10.87-14.23,19-14.62l.87,0c10.32,0,20,8.59,21.22,18.76l2.28,19.73,7.33-18.46a30.54,30.54,0,0,1,23.48-18.44,28.54,28.54,0,0,1,3.83-.26,30.51,30.51,0,0,1,23.79,11.57l4.51,5.86L944,92.13c7.12-12,14.48-24.45,25.29-33.08,7.51-6,16.61-9.44,25-9.44m0-5c-10,0-20.17,4.2-28.09,10.53-11.38,9.09-19.05,21.91-26.47,34.44A35.54,35.54,0,0,0,912,76.06a32.59,32.59,0,0,0-4.52.31A35.41,35.41,0,0,0,880,97.91c-1.47-12.68-13.47-23.18-26.18-23.18l-1.11,0c-10.37.5-20.2,8.22-23.51,18-4.36,12.89,10.26,23.61,6.68,33.18-3.18,8.5-21.57,11.54-28.6,17.31-9,7.39-15.71,17.66-17.89,29.16q24.14.87,48.27.87a1343.37,1343.37,0,0,0,224.57-18.9q-3-5.67-6-11.34l9.92-1.92c-1.66-11.2-12.44-20.21-23.7-20.21q-1,0-1.92.09c10.54-5.33,15-20.1,9.06-30.34C1045.75,83.9,1037.9,80,1030.15,80a20.68,20.68,0,0,0-11.29,3.2c8.82-11.58,1.48-30.22-11.87-36.05a31.56,31.56,0,0,0-12.7-2.57Z"/><path class="cls-3" d="M759.14,420.88c-15.52-20.27-1.87-51,26-58.59s61.48,10.39,64,34.18c1.66-11.36,13.42-21.24,27.33-23s28.74,4.9,34.45,15.35c-3.19-16.75-2.17-34.51,6.91-49.77s27.18-27.58,48-29.06,42.87,9.82,47,26.45-14.24,35.15-34.94,33.11c21.06-3.78,44.39-5.65,63.06,3.12s27.78,32,12.38,44.31c-12.19,9.72-34.56,7.18-45.23-3.66s-10.07-27.25-1.11-39.06,24.86-19.34,41.45-22.61,33.95-2.7,50.94-1.33c13.38,1.07,27.84,3.1,36.94,11.15s7.87,24-5,27.23c-11,2.81-22.52-5.95-23.45-15.27s5.76-18.09,13.78-24.8c17.91-15,43.94-23.32,69.62-22.28,8.86.37,18.09,2,24.78,6.7s9.84,13.32,5.13,19.43-18.1,6.55-21.72,0c-3.73-6.77,8.19-14.75,15.64-10.46s2.19,16.07-6.9,15.48c27.93,9.73,38.76,42.41,20.63,62.23L1249,440.41l-25.86,6.8c12-1,24.71-1.84,35.43,2.62s17.6,16.39,10.64,24.37c-6,6.88-18.15,7.28-28.52,7l-223.78-5.83,34.93-8.58a1409,1409,0,0,1-336.35,27.1c-11.7-.46-26.25-2.88-29.05-12.13-2.67-8.81,7.77-16.38,17.3-21.12,41.23-20.47,88.76-32.49,137-34.62l-80.34-.36c-8.37,0-18.12-.64-22.83-6.27-6.49-7.75,3.13-18.93,14.5-20.5s22.51,3.06,32.64,7.54c.32-2.13,4.57-2.84,5.89-1"/><path class="cls-3" d="M40.57,732C19.68,710,21,676.55,43.49,655.61s64-27.19,94.64-14.27,47.32,43.69,38.05,70.21c1.45-18.8,22.42-35.39,46.12-36.49s47,13.43,51.19,32c-.85-17.34,2.11-35.14,12-50.61S313,628,334.21,623.94c25.22-4.86,53.72,4.11,67.88,21.37s13,41.56-2.86,57.89c-14.54,15-43.25,22.2-63.41,12.07-18.84-9.47-23.74-31.82-12.12-46.93S360.25,646.25,382,650.1s39.78,17.25,48.89,33.41c11.83-18.16,34.53-31.61,59.84-35.45s52.67,2,72.11,15.43c5.69-14.41,31.45-19.86,47-11.13s18.83,27.57,9.23,40.61-29.53,20-48.56,19.39l75.83.58c11.6.09,26.21,1.92,29.24,10.79,2,6-3,12.32-9.75,15.43s-14.8,3.74-22.57,4.3c-11.35.82-23.35,1.54-33.61-2.4s-17.45-14.38-11.93-22.29c6.4-9.17,23.06-8.44,36-6.41,18.9,3,38.21,6.12,54.71,14s29.93,21.55,30,36.84-16.95,30.54-36.08,28.69c16.21-10.68,39.23-14.49,59.48-9.84s37.13,17.64,43.63,33.54l3.45,8.48c-116.16,10.67-232.84-10.78-349.66-14.75C319.25,805.24,199.53,819.64,80.7,834l-2.77-24.86c-19.78,8.67-46.35-2.08-55.76-18.39s-5.54-35.54,2.24-52.38c3.87-8.37,8.83-16.68,16.94-22.85s19.91-9.89,30.79-7.65l-9-8.74"/><path class="cls-3" d="M496.12,206.37c5.06-10.78,16.18-19.48,29.43-23s28.39-1.87,40.06,4.44c1.36-9.8,11.28-18.32,23-19.76s24.2,4.33,28.89,13.38c3.37-9.45,20.81-11.14,29.07-4.06s7.93,18.87,2.43,27.6c-3,4.85-7.79,9.26-14.07,10.89s-14.12-.33-16.93-5.28c7,.52,14.31,1.1,20.46,4s10.85,8.76,9.3,14.49c-2.27,8.38-15,10.92-25.37,11.09a221.08,221.08,0,0,1-88.14-16.68l9.47-3.59-78.44,6.07c-6.58.51-14.63.44-18-4.27-2.9-4-.43-9.5,4-12.44s10.13-4,15.65-4.88l40.72-6.88"/><path class="cls-3" d="M127.55,205.38c6.43-28.09,35.59-50.55,67.3-51.84s63,18.71,72.19,46.16c9.89-13,30-18.85,46.43-13.42s27.63,21.61,25.85,37.33c6.52-9.45,24.63-4.12,28.89,6.32s-.48,21.95-5.17,32.25c13.08-.23,24.75,11.6,23,23.31,14.75-13.81,35.51-22.22,56.72-23-5.29,3.17-12.75,1.51-17.51-2.28s-7.45-9.22-10-14.47c-4.32-8.89-8.69-18-9.83-27.62s1.44-20.18,9.26-26.85c11.28-9.61,29.54-8.36,43.8-2.85,17.93,6.94,33,19.67,41.94,35.35,5.61-11.14,22.32-16.34,34.34-10.69s16.87,21,10,31.55c6.62-5.41,18.43-2,22.36,5.27s1.35,16.26-4.08,22.67-13.23,10.75-20.85,15c5.52.19,11.25.43,16.14,2.73s8.71,7.32,7.42,12.17c-1.65,6.2-9.89,8.58-16.87,9.57-69,9.81-139.28-10.58-208.87-5.46-25.86,1.9-51.23,7.31-76.84,11.1C206.82,326,149.46,326.5,92.38,327c-23,.2-49.68-1.12-63.48-17.79C15.5,293,21.39,268.84,35.82,253.4c21.75-23.27,61.34-31.16,91.91-18.31C117,238,105,228.6,105.68,218.48s12.68-18,23.79-16.47,19.7,11.27,20.07,21.41l-.6-7.07"/><path class="cls-3" d="M589.54,922.05c-12.22-16.47-6.65-42,11.62-53.32s45.82-6.21,57.48,10.6c-7.89-5.39-8-17.23-1.83-24.47s16.81-10.21,26.69-9.83,19.29,3.65,28.49,6.87c1-10.2,14.28-16.35,25.19-14.64s19.7,8.76,27.89,15.52l30.76,25.42c5.93,4.89,12.2,10.35,13.53,17.62s-5.43,16.12-13.21,14.41a53.25,53.25,0,0,1,6.59-47.09c9.49-13.91,25.81-23.75,43.36-26.14,9.63-1.31,22,1.4,23.71,10.17,1.52,7.65-7.48,14.78-15.91,14.16s-15.2-7-18.43-14.11c-5.74-12.74-1.66-28.82,9.69-38.14s29.12-11.17,42.15-4.41c-1.52-11.22,11.15-22.23,23.21-20.16s19.12,16.48,12.93,26.38c-11.61-15-.87-39.16,18.3-45.33s41.44,4.05,50.56,20.5,6.47,37.19-3.43,53.57c9.08-2.79,20,2.88,21.91,11.43s-5.4,18.07-14.87,19.18c22.37-24.18,58.92-36.49,92.51-31.15l-12,3.07c12.52-10.33,30.67-14.48,46.74-10.68s29.56,15.42,34.73,29.93c2.34,6.56,3,13.92.12,20.37s-9.9,11.65-17.42,11.38-14.27-7.22-12.43-14c19-.74,37.56,11,43.47,27.59l-389.14,8.05c5.52,9.66-1.46,22.33-11.82,28s-22.89,6.07-34.82,6.36l-50.64,1.23c-33.1.81-66.24,1.61-99.29.32-10.37-.4-21.15-1.12-30.05-5.9s-15.28-14.84-12-24,18.79-13.1,24.53-5.22C576.75,910.62,586.76,913.4,589.54,922.05Z"/><path class="cls-3" d="M1171.86,682.1c13.2-1.18,26.36,7.94,26.44,18.32s-13,19.61-26.18,18.54c13.57-10.72,32.38-17.29,51.66-18,7-.28,15,.57,19.24,5,3.7,3.89,2.86,10-1.83,13.17s-12.51,3-17-.39c9.4-5.05,22.81-5,32.14.11s13.95,15,11.06,23.58c8.75,4.34,4.76,16.06-4.51,19.7s-20.35,1.8-30.42-.11l-63.17-12-30.24-5.73c-4.71-.89-9.6-1.86-13.34-4.27s-5.93-6.74-3.7-10.1,9.74-3.88,11.62-.39c-8,1.9-16.34,3.78-24.6,2.76s-16.36-5.85-17-12.36c-.54-5.18,3.76-10.09,9.28-13s12.16-4.19,18.63-5.42,13-2.44,19.54-1.57,11.7,4,13.94,8.78C1147.45,697.67,1155.47,683.58,1171.86,682.1Z"/></svg>