<svg id="Layer_1" data-name="Layer 1" xmlns="http://www.w3.org/2000/svg" viewBox="0 0 200 200"><defs><style>.cls-1{fill:#fcd87a;}.cls-2{fill:#e59b46;}.cls-3{fill:#5d2b0e;}.cls-4{fill:#fff;}</style></defs><path class="cls-1" d="M41.8,108.65c2.58,4.13,6.73,7.13,10.77,10l26.65,19c3.7,2.65,7.86,6.89,5.76,10.77-1.91,3.53-7.27,3.23-11.36,2.27a159.32,159.32,0,0,1-37.35-13.87c-6.84-3.57-13.83-8.12-16.59-15.06-2.38-6-1.1-12.87,2.24-18.35S30.47,93.72,36,90.23c1.89-1.18,4.81-3.41,6.88-4.29,8.39-3.57,3.69,7.73.34,10.08C38.68,99.23,38.67,103.64,41.8,108.65Z"/><path class="cls-1" d="M50.74,83.15a14.48,14.48,0,0,1,13,5.67c2.39,3.14,3.47,7.7,1.67,11.24s-5.82,5.07-9.56,4.89-7.25-1.8-10.67-3.4C32.72,95.73,39.52,84.46,50.74,83.15Z"/><path class="cls-2" d="M46.4,93.42c1.6-1.2,3.34-2.46,5.35-2.53a6.68,6.68,0,0,1,4.31,1.64,19.53,19.53,0,0,1,3.1,3.5,13.75,13.75,0,0,1,2.48,4.32,4.58,4.58,0,0,1-1,4.63c-1.25,1.12-3.12,1.2-4.8,1.06a28.69,28.69,0,0,1-11.65-3.54c-1.52-.85-4-2.65-3.16-4.69C41.74,96.07,44.94,94.53,46.4,93.42Z"/><path class="cls-1" d="M83,35.2c14.33-4.81,29.73-4.23,44.75-3.32,13.42.81,28.5,2.74,36.7,13.92,5.63,7.67,6.56,17.92,7.29,27.57,1.66,22.15,2.56,34.28,4.22,56.43.5,6.63-2.15,20.7-5,26.43-2.8,5.56-10.15,11.93-26,18.72-20.52,8.78-42.15,2.32-54.59-8.25-10.74-9.14-15.59-23.12-17.89-28.34A326.68,326.68,0,0,1,56.71,94.31C53.8,83.85,48.38,70.54,53.31,60,58.87,48.14,71.37,39.11,83,35.2Z"/><path class="cls-3" d="M137.43,40.6c8.64,2.61,17.39,7.63,20.95,16.29,4.28,10.4-.61,23-8.91,30.29s-19.25,10.16-29.91,12c-8.9,1.54-18.06,2.48-26.9.62C74.7,96,57,72.18,72.52,55.06,87.75,38.22,117.27,34.49,137.43,40.6Z"/><path class="cls-4" d="M124,36a19.15,19.15,0,0,1,19.65,3.94c3.56,3.35,5.82,8.91,3.66,13.36s-7.64,5.85-12.46,6.24a68.64,68.64,0,0,1-11.38,0,18.41,18.41,0,0,1-6.75-1.58C105.72,52.29,116.59,38.82,124,36Z"/><path class="cls-4" d="M99.83,73.94c4.75-4.11,10.39-6.14,16.07-7.63,1.4,4.3-.52,8.43-2.57,11.21a42.42,42.42,0,0,1-10.5,10.21c-2.72,1.82-9.4,6.74-12.52,4.49C90.73,84.22,95.55,77.64,99.83,73.94Z"/></svg>