<svg id="Layer_1" data-name="Layer 1" xmlns="http://www.w3.org/2000/svg" viewBox="0 0 200 200"><defs><style>.cls-1{fill:#5d2b0e;}.cls-2{fill:#fff;}.cls-3{fill:#fcd87a;}.cls-4{fill:#e59b46;}</style></defs><path class="cls-1" d="M127.84,61a86.19,86.19,0,0,1,39.58,50.78c3.33,11.76,4.07,24.69-.46,36-6.31,15.8-22,26.2-38.36,30.17s-33.47,2.47-50.18.53c-8.35-1-16.77-2.05-24.71-4.86s-15.46-7.5-20.34-14.45c-7.07-10.07-7.66-23.42-6.1-35.68a121,121,0,0,1,21-54C52.75,63.1,58,54.73,65.69,52.4c9-2.73,19.74-2.87,29-1.94A83.69,83.69,0,0,1,127.84,61Z"/><path class="cls-2" d="M113.55,68.8c7.14,1.85,14.51,3.81,20.32,8.41s9.69,12.58,7.31,19.66c-2.3,6.84-9.49,10.69-16.39,12.51-21.6,5.69-46.19-3.11-59.48-21.28-3.5-4.77-6.32-10.42-6.06-16.36.49-11.28,9.82-14.39,18.83-12.13C89.93,62.57,101.73,65.74,113.55,68.8Z"/><path class="cls-3" d="M124.2,82.44a20.57,20.57,0,0,1,6.74,5.33c1.72,2.33,2.52,5.54,1.34,8.19s-3.85,4.06-6.57,4.48a25.06,25.06,0,0,1-8.22-.57l-27.28-5c-5.92-1.08-12-2.25-17-5.7-3.78-2.65-9.43-10-6.38-15,2.83-4.59,13-3.18,17.5-3A88.35,88.35,0,0,1,124.2,82.44Z"/><path class="cls-4" d="M135.61,39.2A158,158,0,0,1,114,94.33c-2.09-.47-3.46-2.66-3.7-4.81a15.92,15.92,0,0,1,1.07-6.37Q115.85,69,120.89,55q2.56-7.11,5.28-14.16c1-2.6,2.78-11.09,5.63-12C136.82,27.32,136.06,36.8,135.61,39.2Z"/><path class="cls-4" d="M193.2,35.84a1.93,1.93,0,0,1-1.41,1.79,5.54,5.54,0,0,1-2.4.06q-15.18-1.86-30.24-4.53a14.94,14.94,0,0,1-5.94-1.95c-2.39-1.63-3.73-5.19-1.15-7.28,2-1.67,4.36-.55,6.66-.23a88.3,88.3,0,0,1,22.74,6A79.62,79.62,0,0,1,193.2,35.84Z"/><path class="cls-4" d="M138.93,26.26a10.78,10.78,0,0,1,.63,3.63l.14,2.4a1.17,1.17,0,0,1-.21.92.78.78,0,0,1-.9,0,2.18,2.18,0,0,1-.65-.7c-1.22-1.75-4.31-4.7-3.71-7.1C134.92,22.63,138.16,24.47,138.93,26.26Z"/><path class="cls-4" d="M143.85,23l.51,4.55a5.1,5.1,0,0,1-.18,2.66,2.15,2.15,0,0,1-2.31,1.3c-1.14-.28-1.46-1.59-1.57-2.67-.22-2-1.74-6.09-.77-7.91C141.23,17.69,143.65,21.05,143.85,23Z"/><path class="cls-4" d="M149.32,21a4.28,4.28,0,0,1,.49,3l-.42,5.63a3.82,3.82,0,0,1-.26,1.31,1.29,1.29,0,0,1-1,.8c-.77.06-1.29-.75-1.57-1.47a16,16,0,0,1-1.18-7.86C145.66,20.56,147.86,19.07,149.32,21Z"/></svg>