<svg id="Layer_1" data-name="Layer 1" xmlns="http://www.w3.org/2000/svg" viewBox="0 0 200 200"><defs><style>.cls-1{fill:#fcd87a;}.cls-2{fill:#fff;}.cls-3{fill:#fee28a;}.cls-4{fill:#231f20;}.cls-5{fill:#e59b46;}</style></defs><path class="cls-1" d="M36.64,133.48c.3,3.45-2.44,9.19-.17,11.5,3,3,10.74.22,14.7-.55,20.17-3.89,51.63-3.27,70.39,5.54,6.7-40.23,2.07-82.46,1.84-122.72-23.21,1.28-53.82,5.39-77,6.68-3.66.2-13.91-1.3-16.86,1S29.1,47,29.43,50.8L32.8,89.49Z"/><path class="cls-1" d="M81.79,179.64A514,514,0,0,1,172,149.7,657.08,657.08,0,0,1,135,43.74c-.15-.59-63.72,25.17-69.4,27.79-3.11,1.44-13,4.08-14.15,7.66-1.2,3.82,4,13.61,5.29,17.44Q63.08,115.89,69,135.28,75.64,157.38,81.79,179.64Z"/><path class="cls-2" d="M68.17,164.38Q110.22,151,151,133.7l-27.6-97.34c-.54-1.93-1.2-4-2.77-5.15-2-1.45-4.64-.73-6.87.06A523.82,523.82,0,0,0,46.33,60.45c-3.61,1.86-10.51,3.56-11,8.27s3.6,13.15,5,17.83q5.58,18.72,12.09,37.12C53.68,127.19,67.13,164.71,68.17,164.38Z"/><path class="cls-3" d="M76.47,77,70.22,90.63a2,2,0,0,0,3.45,2L83.28,78.3l-3.66-1.54L72.77,94.19a2,2,0,0,0,1.16,2.36,2,2,0,0,0,2.5-.82A115.73,115.73,0,0,0,87,78.85l-3.46-2a154.83,154.83,0,0,0-7.47,20.91c-.62,2.25,2.43,3.39,3.66,1.54,4.37-6.57,6.87-14.12,9.29-21.56l-3.86-1.07L82,93.26a2,2,0,0,0,3.85,1.06l5.87-16a2,2,0,0,0-1.4-2.46,2,2,0,0,0-2.46,1.39,33.84,33.84,0,0,0-2.17,11.61,2,2,0,0,0,3.72,1A85.71,85.71,0,0,0,95.78,74.8l-3.92-.54a56.36,56.36,0,0,1-1.19,11c-.45,2.14,2.5,3.6,3.66,1.54a50.22,50.22,0,0,0,4.56-11L95,74.75l-2.54,10c-.53,2.11,2.68,3.67,3.66,1.54L102,73.55l-3.72-1a26.89,26.89,0,0,1-.87,6.55l-1.32,6.79A2,2,0,0,0,100,87l2.81-9H98.91a20.3,20.3,0,0,1,.16,4.8c-.19,2.57,3.81,2.56,4,0a24.57,24.57,0,0,0-.3-5.87c-.34-2.07-3.32-1.73-3.86,0l-2.8,8.95L100,87l1.42-7.28a29.6,29.6,0,0,0,.92-7.13c-.11-1.8-2.84-3-3.73-1L92.69,84.29l3.66,1.55,2.54-10c.63-2.5-3.16-3.55-3.86-1.06a45,45,0,0,1-4.15,10l3.65,1.54a61.76,61.76,0,0,0,1.33-12c0-2.34-3.21-2.6-3.93-.53a81.26,81.26,0,0,1-6,14.15l3.73,1a30.6,30.6,0,0,1,2-10.54l-3.86-1.07L82,93.26l3.85,1.06L89,77.72a2,2,0,0,0-3.86-1.07C82.86,83.79,80.48,91,76.3,97.26L80,98.8a145,145,0,0,1,7.07-20,2.07,2.07,0,0,0-.72-2.74,2,2,0,0,0-2.74.72A115.73,115.73,0,0,1,73,93.71l3.66,1.54,6.85-17.43c.87-2.21-2.47-3.32-3.66-1.54l-9.6,14.35,3.45,2,6.26-13.59a2,2,0,0,0-.72-2.73,2,2,0,0,0-2.74.71Z"/><path class="cls-3" d="M103.4,86.71a7.16,7.16,0,0,1,1.23-1.23l-.2.16a6.37,6.37,0,0,1,1.27-.78L104.19,84a5.19,5.19,0,0,1,0,.68l0-.27a6.73,6.73,0,0,1-.43,1.58l.1-.24a1.89,1.89,0,0,0-.11.25,1.08,1.08,0,0,0-.11.77,1,1,0,0,0,.46.59,1,1,0,0,0,.77.1.93.93,0,0,0,.6-.46,7.24,7.24,0,0,0,.73-3,1,1,0,0,0-.49-.86,1,1,0,0,0-1,0A7.3,7.3,0,0,0,102,85.3a1.08,1.08,0,0,0-.29.7,1,1,0,0,0,.29.71,1,1,0,0,0,1.42,0Z"/><path class="cls-4" d="M77.54,79.11c8.09-2.88,17.08-4.62,25.68-3.78,3.73.37,7.63,1.52,10.46,4.08a15.43,15.43,0,0,1,4.62,8.24,14,14,0,0,1-1.2,9.51,17.72,17.72,0,0,1-7.39,6.91A49.73,49.73,0,0,1,99.4,108a53.25,53.25,0,0,1-13.31,2.21,31.71,31.71,0,0,1-7.34-.68A14.07,14.07,0,0,1,72.61,107c-1.73-1.46-2.39-3.68-2.81-5.84a23.17,23.17,0,0,1-.15-7.88c.29-1.89-2.6-2.7-2.89-.8-.7,4.63-.6,10.18,1.84,14.34,2.31,4,7.13,5.35,11.38,6,9.37,1.41,19.46-.94,28.09-4.6,7.27-3.09,13.48-8.76,13.56-17.17a18.94,18.94,0,0,0-3.18-10.62,17.93,17.93,0,0,0-9.61-7c-4.92-1.55-10.28-1.44-15.35-.94a71.26,71.26,0,0,0-16.75,3.74c-1.8.65-1,3.55.8,2.9Z"/><path class="cls-4" d="M83.55,93.27c2.58,0,2.58-4,0-4s-2.57,4,0,4Z"/><path class="cls-4" d="M100.23,88.4c2.57,0,2.58-4,0-4s-2.58,4,0,4Z"/><path class="cls-4" d="M88,93.67a33.45,33.45,0,0,1,9.2-2.07c1.21-.09,2.83-.31,3.77.64s.93,2.47.73,3.69-.48,2.89-1.61,3.72a10.36,10.36,0,0,1-4,1.42,18.68,18.68,0,0,1-4.54.34c-1.38-.06-3-.13-4.06-1.09a4.23,4.23,0,0,1,.63-6.77,1,1,0,0,0-1-1.73,6.25,6.25,0,0,0-2.22,8.44,5.88,5.88,0,0,0,3.88,2.83,18,18,0,0,0,5.77.22A18.74,18.74,0,0,0,100,102a5.54,5.54,0,0,0,3.23-3.77,9.36,9.36,0,0,0,.27-5.49,4.4,4.4,0,0,0-3.59-3.08,19.84,19.84,0,0,0-6.19.4,34.84,34.84,0,0,0-6.25,1.71,1,1,0,0,0-.7,1.23,1,1,0,0,0,1.23.7Z"/><path class="cls-4" d="M69.83,102.69c1-.71,2.2-.71,3.32-1a28.73,28.73,0,0,0,3.63-1.12A33.94,33.94,0,0,1,84,98.4a1,1,0,0,0,1-1,1,1,0,0,0-1-1,36.19,36.19,0,0,0-7.74,2.28,26.9,26.9,0,0,1-3.74,1.14A9.14,9.14,0,0,0,68.82,101a1,1,0,0,0-.36,1.37,1,1,0,0,0,1.37.36Z"/><path class="cls-4" d="M103.43,95.2a67.1,67.1,0,0,0,9.25-2.37c1.46-.47,2.92-1,4.37-1.45a7.58,7.58,0,0,0,3.48-2.06c.82-1-.59-2.4-1.42-1.42A6.41,6.41,0,0,1,116,89.62c-1.44.49-2.88,1-4.33,1.43a66.53,66.53,0,0,1-8.79,2.22,1,1,0,1,0,.53,1.93Z"/><path class="cls-4" d="M91.83,94.72A14.11,14.11,0,0,1,94,94.19l.15,0c-.14,0,0,0,0,0l.15,0,.58-.05h.2c.1,0-.14,0-.14,0l-.21-.16a.44.44,0,0,1-.28-.31s0,.14,0,0,0,0,0,0a2.17,2.17,0,0,1,0,.26c0,.07,0,.15,0,.23s0,.08,0,.13-.06.11,0-.07c-.06.15-.07.32-.12.47s0,.08,0,.12,0-.09,0-.09-.08.18-.1.2a1.18,1.18,0,0,1-.11.19s-.06.07-.06.09.13-.17,0,0a.93.93,0,0,1-.14.14.81.81,0,1,0-.07.07c.13-.1-.06,0-.09,0l-.2.11c.25-.14.06,0,0,0s-.27.05-.09,0-.06,0-.11,0,0-.06.07,0l-.13,0c.06,0,.16.1.06,0s-.17-.12,0,0,0-.06-.09-.1.07.09.07.09l-.08-.13-.06-.1c-.05-.1,0-.13,0,0a2,2,0,0,0-.08-.26L93,94.73c0-.19,0,0,0,.06a1.1,1.1,0,0,1,0-.18c0-.11,0-.21,0-.32a1,1,0,0,0-1-1,1,1,0,0,0-1,1,5.54,5.54,0,0,0,.24,1.51,2.61,2.61,0,0,0,1,1.33,2.54,2.54,0,0,0,3-.34,3.69,3.69,0,0,0,1.24-2.56,2.57,2.57,0,0,0-.2-1.5,1.61,1.61,0,0,0-1.73-.6,13.84,13.84,0,0,0-3.18.66A1,1,0,0,0,90.6,94a1,1,0,0,0,1.23.7Z"/><path class="cls-5" d="M168.88,49.21c3.14-.79,6.44-1.45,9.58-.66s6.1,3.42,6.4,6.83a8.73,8.73,0,0,1-3.21,7.09,23.12,23.12,0,0,1-6.83,3.71l-33,13.4c-4.22,1.71-8.79,3.44-13.14,2.16-3.81-1.12-7.48-6.17-5.49-10.38,1.91-4,9.84-7.25,13.49-9.31A128.61,128.61,0,0,1,168.88,49.21Z"/><path class="cls-1" d="M110.19,81.64c-.73.81-1.47,2.08-.79,2.94a2.18,2.18,0,0,0,2.08.45l15.45-2.12c.91-.13,2-.35,2.37-1.22a3.2,3.2,0,0,0-.19-2.38c-.91-2.59-1.55-6.3-3-8.57s-1.79-.74-3.58.61C118.18,74.63,113.91,77.5,110.19,81.64Z"/><path class="cls-5" d="M106.1,83.81c-.35.36-.69.93-.34,1.34a1.22,1.22,0,0,0,1,.24l7.67-.7c.45,0,1-.13,1.16-.52a1.36,1.36,0,0,0-.13-1.1,20,20,0,0,0-1.64-4c-.72-1-.9-.37-1.77.22A36.61,36.61,0,0,0,106.1,83.81Z"/><path class="cls-5" d="M101.57,70.4c.06-.08.15-.16.2-.24-.06.1-.25.18,0,0s.09,0-.06,0l.38-.11.13,0c-.26,0,.08,0,.13,0l.32,0h.18c.15,0,.13,0-.07,0l-.88-.51a1.51,1.51,0,0,1-.3-1.25c.07-.32,1.09-.9.69-.74-.19.08.19,0,0,0h-.18c-.32,0-.13,0,.56.15l.72.72,0-.11.27,1v-.11l-.27,1a1.27,1.27,0,0,1-.69.52l.43-.11.64-.14.75-.13.32,0h.11a16.47,16.47,0,0,1,3-.09l-1-.27-.19-.15-.52-.89,0,.13V67.94c0-.19.24-.37.37-.49-.2.11-.19.11,0,0l-.24.07c-.15,0-.1,0,.13,0h-.13c-.21-.07-.21-.06,0,0V71a5.7,5.7,0,0,1,.68-.39c-.33.15.26-.06.34-.08a1.4,1.4,0,0,1,.28-.06c-.21,0-.2,0,0,0s.51,0,.77,0L106.49,68a.7.7,0,0,1,.2-.33c-.16.15-.15.15,0,0l-.43.25c-.42.22-.86.4-1.29.6l-1.4.65-.32.14c-.27.06-.28.07-.05,0H103c-1,0-2,0-3,0s-2.07.06-3.09,0l1,.28-.14-.07.72.72c.52.72-.24,1.89.17,1.11l.24-.45c.16-.3.32-.6.5-.89s.32-.52.49-.77l.12-.15c.1-.13.21-.25.33-.38l.34-.33c.09-.09.21-.18,0-.05a4.48,4.48,0,0,1,.81-.49c-.25.12,0,0,.13,0a3.69,3.69,0,0,1,.45-.11c-.21,0-.17,0,0,0,.46,0-.09,0-.15,0l-.72-.72c0-.08-.19-.49-.07-.58s-.24.64,0,.2c0,.05-.32.5-.07.2,0,0-.44.43-.11.16a2.36,2.36,0,0,1-.48.29c.31-.15-.13,0-.22,0-.34.11.09,0-.11,0h-.28c-.26,0-.25,0,0,0l.89.51.12.18.28,1c0-.22,0-.21,0,0l.06-.28.09-.27c-.08.19-.07.18,0,0a2,2,0,0,0-3.46-2,5.42,5.42,0,0,0-.69,2.26A2.41,2.41,0,0,0,99,71.27a5.43,5.43,0,0,0,4.32-1.09,4.52,4.52,0,0,0,1.74-4.27c-.4-2-2.6-2.37-4.3-2-2.77.68-4.53,3.28-5.71,5.7a2.61,2.61,0,0,0,0,2.66,2.87,2.87,0,0,0,2.7,1.06H102a8.4,8.4,0,0,0,2.35-.2,20.33,20.33,0,0,0,2.48-1.1c1.51-.7,2.94-1.3,3.52-3a1.92,1.92,0,0,0-.36-1.74,2.1,2.1,0,0,0-1.57-.79,6.25,6.25,0,0,0-4.12,1c-1.14.75-1.46,2.77,0,3.45a4.41,4.41,0,0,0,3.23.33A3.37,3.37,0,0,0,110,69a2.3,2.3,0,0,0-.82-2.33,3.23,3.23,0,0,0-2-.52,25.09,25.09,0,0,0-3.24.24,8.87,8.87,0,0,0-3,.74,2.34,2.34,0,0,0-.28,4,3.65,3.65,0,0,0,3.55-.09,2.86,2.86,0,0,0,1.24-3.28A2.54,2.54,0,0,0,103.11,66a6.4,6.4,0,0,0-1.45.1,4.34,4.34,0,0,0-2.92,1.44,2.05,2.05,0,0,0,0,2.83,2,2,0,0,0,2.83,0Z"/><path class="cls-5" d="M68.33,73.9a13.27,13.27,0,0,0-9.66,3.69A2,2,0,0,0,58.36,80a2.08,2.08,0,0,0,2.26.92L70,79.26,68.44,75.6a35.3,35.3,0,0,1-10.5,3.2,2,2,0,0,0,.54,3.93l4.44-.21L61.5,79.11l-2.19,1.72A2,2,0,0,0,59,83.25a2.08,2.08,0,0,0,2.26.92c2.15-.37,4.28-.81,6.4-1.34L66.6,79a17.89,17.89,0,0,0-3.43,1.82,2.06,2.06,0,0,0-.92,2.26,2,2,0,0,0,1.93,1.46,16,16,0,0,0,5.51-1.12,2,2,0,0,0,1.44-2.19,2,2,0,0,0-2-1.74,12.21,12.21,0,0,0-8.68,4.15L63.62,86l.2-.37s.28-.4.2-.31.54-.48.33-.33a2.26,2.26,0,0,1,1.38-.53l-1.06-3.86A8.07,8.07,0,0,0,60,83.37a2,2,0,0,0,.88,3.34A11.56,11.56,0,0,0,68,86a2,2,0,0,0-1.55-3.66c-1.44.49-2.9.93-4.32,1.46a3.64,3.64,0,0,0-2,1.47,2.87,2.87,0,0,0,0,2.85,2,2,0,0,0,1.72,1,16,16,0,0,0,4.66-1.25l-2-3.45L61.78,86a2,2,0,0,0,0,3.45,5.81,5.81,0,0,0,4.54.52l-1.95-3.34A3.39,3.39,0,0,0,63,89.71a2.65,2.65,0,0,0,2.65,2.34c2.32,0,3.08-2.73,3.64-4.51s.94-3.29,1.52-4.89a13.28,13.28,0,0,1,2-3.83L69.4,77.41a13.11,13.11,0,0,1-2.61,9.25,2,2,0,0,0,.72,2.73,2,2,0,0,0,2.74-.71A16.75,16.75,0,0,0,73.4,77.41a2,2,0,0,0-1.23-1.83A2,2,0,0,0,70,76a19.62,19.62,0,0,0-3.56,7.06c-.36,1.18-.68,2.36-1.06,3.53-.1.32-.2.64-.31,1L64.9,88c0,.08-.12.31,0,.1,0,0-.19.34-.2.34l.08-.1c.38-.31.76-.11,1.13.6.92.15,1.22.44.9.86-.13.19-.13.22,0,.09a5.2,5.2,0,0,0,.43-.37,2,2,0,0,0-2-3.34A1.65,1.65,0,0,1,63.8,86v3.45l2.71-1.6a2,2,0,0,0,.72-2.74,2.06,2.06,0,0,0-2.74-.71,10.76,10.76,0,0,1-2.64.7l1.73,1a1,1,0,0,1-.12,1.35.28.28,0,0,1-.19.19l.4-.14L65,87.07l2.59-.87L66,82.55a6.89,6.89,0,0,1-4.11.3l.88,3.35a4.28,4.28,0,0,1,3-1.71A2,2,0,0,0,67.13,82a2,2,0,0,0-2.46-1.4A6.29,6.29,0,0,0,60.17,84a2,2,0,0,0,.52,2.58,2,2,0,0,0,2.62-.15,8.11,8.11,0,0,1,2.79-2.2l.4-.19c.32-.14-.21.07.12,0s.62-.21.94-.3.56-.13.84-.18c.67-.12-.16,0,.22,0l.54,0-.53-3.92a13.13,13.13,0,0,1-4.45,1l1,3.73a14.9,14.9,0,0,1,2.47-1.41,2.07,2.07,0,0,0,1.4-2.46A2,2,0,0,0,66.6,79q-3.18.8-6.41,1.34l2,3.35,2.19-1.73a2,2,0,0,0-1.41-3.41l-4.44.21L59,82.66a38.5,38.5,0,0,0,11.45-3.61,2,2,0,0,0,.82-2.49,2,2,0,0,0-2.36-1.16l-9.37,1.67,2,3.35a9.13,9.13,0,0,1,6.83-2.52,2,2,0,1,0,0-4Z"/><path class="cls-4" d="M74.84,77.59,68.92,88.17c-.74,1.33-1.44,3.07-2.67,4s-2.35-.11-3.08-1.09a22.77,22.77,0,0,1-3.68-9.61c-.26-1.58-.56-3.39.91-4.45a13.44,13.44,0,0,1,4.87-2,10.09,10.09,0,0,1,10,3.06c1.27,1.46,3.38-.67,2.13-2.12a12.8,12.8,0,0,0-11.25-4.12A18,18,0,0,0,59.59,74a5.88,5.88,0,0,0-3.3,5.08,20.24,20.24,0,0,0,1.05,6.4A28.31,28.31,0,0,0,60,91.7c1,1.63,2.36,3.34,4.29,3.79a5,5,0,0,0,4.93-2,47,47,0,0,0,4-6.81l4.22-7.53c.94-1.69-1.65-3.21-2.59-1.52Z"/><path class="cls-4" d="M96.15,72.49a6.16,6.16,0,0,1,2.06-6.29,7.86,7.86,0,0,1,6.58-1.12,16.47,16.47,0,0,1,3.91,1.53c.86.45,1.55.78,1.41,1.83-.31,2.31-3.19,2.66-5,2.94a1.5,1.5,0,0,0-1,1.84,1.53,1.53,0,0,0,1.84,1c2.47-.38,5.23-1.07,6.52-3.45a5.43,5.43,0,0,0,.61-3.6,4.25,4.25,0,0,0-2.3-2.92c-4.66-2.67-11.28-4-15.37.47a9.36,9.36,0,0,0-2.1,8.51c.46,1.88,3.35,1.09,2.9-.79Z"/></svg>