<svg id="Layer_1" data-name="Layer 1" xmlns="http://www.w3.org/2000/svg" viewBox="0 0 200 200"><defs><style>.cls-1{fill:#e59b46;}.cls-2{fill:#fff;}.cls-3{fill:#fcd87a;}.cls-4{fill:#5d2b0e;}.cls-5{fill:#231f20;}</style></defs><path class="cls-1" d="M134.24,48.3Q147.9,53,161,59c2,.93,4.13,1.94,5.49,3.65,1.86,2.32,2,5.44,2.11,8.36l1,34c.07,2.52.05,5.32-1.73,7.19-2.13,2.23-5.79,2.16-8.93,1.76a94.85,94.85,0,0,1-37-12.89,12.76,12.76,0,0,1-4.31-3.65c-1.31-2-1.38-4.53-1.41-6.91l-.44-30.82c0-2.63-.06-5.33.94-7.78C119.49,45.15,128.52,46.33,134.24,48.3Z"/><path class="cls-1" d="M155.06,91.08c3.74-1.33,8.24-1,11.13,1.87,3.34,3.34,3.62,8.86,3.66,13.79l.14,17.61c0,3.56,0,7.37-1.83,10.33-2.74,4.47-8.35,5.35-13.29,5.82-3.93.37-8.19.66-11.49-1.68-3.69-2.62-5.06-7.77-5.4-12.54C137,112.51,141.84,95.75,155.06,91.08Z"/><path class="cls-2" d="M160.42,106.62a13.71,13.71,0,0,1,3.61,7.94,9.05,9.05,0,0,1-1.32,6.54,10.44,10.44,0,0,1-4.47,3,45,45,0,0,1-12.63,3.25c-2.1.23-4.44.23-6-1.18a5.62,5.62,0,0,1-1.71-3.9,11.51,11.51,0,0,1,.76-4.3,23.72,23.72,0,0,1,6.25-9.51c2.36-2.19,6.1-5.16,9.46-4.84A10,10,0,0,1,160.42,106.62Z"/><path class="cls-3" d="M158.71,91a14.06,14.06,0,0,1-1.49,5.25,51.18,51.18,0,0,1-11.48,16.15,7.09,7.09,0,0,1-4.46-7.23c.32-3.2,2.68-5.7,4.89-7.92l7.7-7.71c.78-.78,2.34-3,3.59-2.52C158.55,87.46,158.73,90,158.71,91Z"/><path class="cls-2" d="M157.57,86.85c-.24,2.27-2.49,3.56-4.33,4.76a25.08,25.08,0,0,0-10.53,15.49l-20.77-5.6c-1.82-.49-3.8-1.11-4.8-2.77-.9-1.49-.74-3.4-.42-5.13,1.14-6,4.26-13.22,9-17.12,2.45-2,5.68.23,8.23,1.21L145,82Z"/><path class="cls-4" d="M45.27,105.06A107.36,107.36,0,0,1,70.2,91.67c9.93-3.88,19.79-6.91,30.43-6.92,11.06,0,19.39,2.81,28.42,6.63,7.81,3.3,15.44,7.3,21.82,12.93s11.47,13,13.25,21.4-.06,17.72-5.81,24c-3.17,3.47-7.31,5.85-11.37,8.18-16.43,9.41-33.07,18.91-51.29,23.87-14.38,3.91-30,4.83-44-.26-11.44-4.17-22.76-13.29-27-25.14-1.84-5.06-1.43-10.47-.81-15.66.78-6.55,4.1-12.85,7.17-18.67A51,51,0,0,1,45.27,105.06Z"/><path class="cls-5" d="M95,25.27c2.74-.86,6.07-1.6,8.21.34,1.63,1.49,1.86,4,2,6.18l1.2,23.87c.26,5.24.39,11-2.69,15.16-2.64,3.59-7,5.28-11.21,6.79l-20.94,7.6c-4.46,1.62-10,3-13.42-.34-2.36-2.34-2.56-6.06-2.6-9.4q-.15-11.91-.31-23.81c-.06-4.24-.82-9.82,2.24-13.28,3.53-4,11.05-4.85,15.82-6.34l11.26-3.51C87.55,27.59,92.15,26.43,95,25.27Z"/><path class="cls-3" d="M71.07,50.82a8.65,8.65,0,0,0,7.43,8.64.15.15,0,0,1,0,.29c-4.15,1.75-9.18,1.87-12.92-.63A10.69,10.69,0,0,1,69,39.85c1.78-.44,11.15.66,9.13,3.18-.8,1-3.58,1.41-4.74,2.61A8.19,8.19,0,0,0,71.07,50.82Z"/></svg>