<svg id="Layer_1" data-name="Layer 1" xmlns="http://www.w3.org/2000/svg" viewBox="0 0 200 200"><defs><style>.cls-1{fill:#e59b46;}.cls-2{fill:#fcd87a;}.cls-3{fill:#5d2b0e;}</style></defs><path class="cls-1" d="M39.91,101.16a8.9,8.9,0,0,1,4.42-1.58A4,4,0,0,1,48.12,102c.52,1.5,0,3.15-.59,4.63l-6,16.15a32.82,32.82,0,0,1-3.62,7.66c-3.24,4.61-13,7.11-13.67-.92-.57-6.91,3-14.9,6.83-20.16A31,31,0,0,1,39.91,101.16Z"/><path class="cls-1" d="M84.78,18.29c24.47-2.88,56.58,8.87,72.88,28.77s20.07,56.61,18.26,82.44c-1.28,18.17-10.89,35.05-31.36,40.5-13.67,3.64-37.91,2.37-50.57-4.16-30.68-15.83-48.6-41.66-58.65-76C24.37,52.24,55.62,21.71,84.78,18.29Z"/><path class="cls-2" d="M67.87,101.17c12.34,2.87,24,11.85,28.89,24.7,5.48,14.37,10.48,40.36-2,48.25-15,9.49-34.81,6.43-42.2,2.42-11.6-6.28-13.38-12.11-16.85-19.38-5.62-11.79-5.34-27,.54-40A27.75,27.75,0,0,1,67.87,101.17Z"/><path class="cls-1" d="M133.68,114.11c-17.32,20.74-44.61,31-70.4,27.32-5.68-.81-8.57,7.26-3.83,10.78l.12.09c4.2,3.07,9.23,4.5,14.22,5.38,28.13,5,58.14-7,76.29-30.33,4.44-5.72,8.35-12.54,8.27-20A17.37,17.37,0,0,0,153.93,96c-2.85-3.07-7.57-1.84-9.08,2.14C142.58,104.13,137.23,109.85,133.68,114.11Z"/><path class="cls-1" d="M33.91,126.58c4.12.59,8.26,2.33,11,5.73s3.62,8.67,1.43,12.48c-2.67,4.64-9.06,5.51-13.48,2.87s-7.06-7.86-8.29-13.15c-.82-3.54-1.07-7.45.49-10.68s5.44-5.34,8.47-3.73l1.12,10.06"/><path class="cls-1" d="M77.72,124.44a6.37,6.37,0,0,0,5.86-1.18,7.18,7.18,0,0,0,2.85-5.5,2,2,0,1,0-4,0c0,.17,0,.34,0,.51l.07-.53a5.07,5.07,0,0,1-.34,1.27l.2-.48a5.47,5.47,0,0,1-.7,1.19l.31-.4a5.51,5.51,0,0,1-1,1l.4-.31a5.15,5.15,0,0,1-1.16.67l.48-.2a4.44,4.44,0,0,1-1.12.31l.53-.07a4.34,4.34,0,0,1-1.08,0l.54.07a4.1,4.1,0,0,1-.77-.18,2,2,0,0,0-2.46,1.4,2.05,2.05,0,0,0,1.4,2.46Z"/><path class="cls-3" d="M43.39,74.15A10.46,10.46,0,0,0,45.93,81a9.55,9.55,0,0,0,6.47,3,8.79,8.79,0,0,0,6.79-2,8.27,8.27,0,0,0,2.52-6.63,2.05,2.05,0,0,0-2-2,2,2,0,0,0-2,2c0,.24,0,.47,0,.71,0,0,0,.61,0,.4a5.31,5.31,0,0,1-.33,1.21,3.8,3.8,0,0,1-1,1.48,3.58,3.58,0,0,1-1.74.76,4.9,4.9,0,0,1-1,.08c-.41,0-.81,0-1.22,0q-.21,0,0,0l-.22,0-.66-.14a7.67,7.67,0,0,1-.92-.3,5.21,5.21,0,0,1-1.81-1.36c-.24-.27,0,.08-.2-.26l-.28-.45c-.12-.19-.22-.39-.32-.58s-.19-.45-.11-.25a6.13,6.13,0,0,1-.46-2.44,2,2,0,0,0-4,0Z"/><path class="cls-3" d="M84.76,76.56a10.75,10.75,0,0,0,1.1,9.64,16.51,16.51,0,0,0,7.53,6c3.18,1.38,6.85,2.07,10.17.75a10.72,10.72,0,0,0,6.32-6.61c.83-2.44-3-3.49-3.86-1.06a6.52,6.52,0,0,1-4.08,4,9.92,9.92,0,0,1-7.23-.86c-4.1-1.93-8.12-5.89-6.09-10.79a2,2,0,0,0-1.4-2.46,2.05,2.05,0,0,0-2.46,1.4Z"/></svg>