<svg id="Layer_1" data-name="Layer 1" xmlns="http://www.w3.org/2000/svg" viewBox="0 0 200 200"><defs><style>.cls-1{fill:#fcd87a;}.cls-2{fill:#e59b46;}.cls-3{fill:#5d2b0e;}.cls-4{fill:#fff;}</style></defs><path class="cls-1" d="M161.18,134c9.18,3.67,19.59,11,18.47,21.51-.66,6.17-5.45,11.07-10.8,13.29s-11.23,2.25-17,2.25l-112.76.14c-13,0-33.13-9.63-16.48-23.74,11.93-10.12,30.25-15.58,44.74-19.25A152.45,152.45,0,0,1,161.18,134Z"/><path class="cls-2" d="M91.11,118.24a165.68,165.68,0,0,1,59.44,11.43,7.52,7.52,0,0,1,3.25,2c.9,1.06-9.59,7.4-10.77,8.22-6.11,4.25-15.72,5.91-30.75,9-12.14,2.47-34.13,2.72-49.42,1.77-8.31-.52-17.24-6.87-18.88-7.83s-4.27-3.15-3.47-4.38c2.65-4.09,1.44-3.05,4.86-6.05a51.13,51.13,0,0,1,10.22-6.95,65.35,65.35,0,0,1,22.59-6.52A111.77,111.77,0,0,1,91.11,118.24Z"/><path class="cls-3" d="M119.31,127.19a10.56,10.56,0,0,1,3.67,5.07,3.66,3.66,0,0,1-.11,3.31c-.73,1-2,.77-3,.41a23.54,23.54,0,0,0-3.93-1.31,5.33,5.33,0,0,0-4.07.76,6.92,6.92,0,0,0-2.49,4.43,11.36,11.36,0,0,0,.42,5.23,10.2,10.2,0,0,1,.53,2,2.65,2.65,0,0,1-.54,2c-.86.92-2.16.28-3-.55-3.17-3.25-4.26-9.11-2.62-14s5.91-8.57,10.21-8.72a9.22,9.22,0,0,1,6,2"/><path class="cls-1" d="M160.22,128.5c5.9-.44,13.38-2.35,14.23-8.7,1-7.07-7.23-11-13.69-12.38L103.55,94.75C92,92.2,80.39,89.64,68.63,90s-23.82,3.81-32.76,12.09c-5.85,5.43-13.65,14.48-9.77,21.69,13.2,24.5,59.56,14.16,72.66,13C124.58,134.49,134.37,130.41,160.22,128.5Z"/><path class="cls-2" d="M160.67,104.28a64.05,64.05,0,0,1-18.6,8.75,66.59,66.59,0,0,1-37-.06c-12-3.59-32.45-10.44-39.21-20.14C64,90.21,58.45,86.21,61,84.26c1.24-1,16.85-1.37,18.5-1.43A184.52,184.52,0,0,1,155,96.13c2.54,1,5.22,2.26,6.53,4.47s.25,5.58-2.48,5.83"/><path class="cls-1" d="M125.48,53.69c16.44,3,33.71,17.19,43.77,31.59,3.31,4.75,3.9,8.39,2.78,14.22-1.45,7.57-4.15,7.43-11.27,7.92-7.43.51-29.93-3.94-36.13-5.07-8.15-1.48-39.16-8.4-73-11.93-3.43-.36-22.14-2.54-22.84-7.27a10.6,10.6,0,0,1,3.71-9.67A103.73,103.73,0,0,1,51.59,61.66C65.71,54.77,84.2,53,99.67,52.12A110.58,110.58,0,0,1,125.48,53.69Z"/><path class="cls-3" d="M29.63,159.27a3.06,3.06,0,0,1-4.15-1,3.9,3.9,0,0,1-.08-4.42A21.74,21.74,0,0,1,43,143.32a5.46,5.46,0,0,1,4.4,1.39c5.6,5.1-3.91,7.62-5.22,8.27Z"/><path class="cls-3" d="M140.59,136.76a6.47,6.47,0,0,1,5.46,3.36,6.38,6.38,0,0,1-.4,6.66,5.77,5.77,0,0,1-6.46,1.75,10.2,10.2,0,0,1-5.24-4.89C131.52,139.23,137.09,136.66,140.59,136.76Z"/><path class="cls-3" d="M103.87,160.6c.13,3.44-7.08,1.86-6.65-1.68C97.72,154.75,103.75,157.63,103.87,160.6Z"/><path class="cls-3" d="M152.5,130.51a20,20,0,0,1,11.75,3.28c2.5,1.53,12.52,8.45,4.08,8.13C162.62,141.71,156.21,134.69,152.5,130.51Z"/><path class="cls-3" d="M85.47,56a10,10,0,0,1,16.25.28,30.07,30.07,0,0,1-12.37,1"/><path class="cls-3" d="M114.33,67.47a7.9,7.9,0,0,1,6,5.6,8.2,8.2,0,0,1,0,4.83,5.33,5.33,0,0,1-2.88,3.4c-2.07.82-4.22-.39-6.11-1.57l-4.14-2.59a8.46,8.46,0,0,1-2.26-1.8C100.37,69.69,111.73,67,114.33,67.47Z"/><path class="cls-3" d="M68.72,62.88a4.65,4.65,0,0,1,6.36.07,4,4,0,0,1-.43,5.93,4.55,4.55,0,0,1-3.52.68,4.61,4.61,0,0,1-2.95-2.1A3.86,3.86,0,0,1,70.42,62"/><path class="cls-3" d="M139.61,56.18a20.57,20.57,0,0,1,14,12c-3.67,1.44-7.89.53-11.21-1.7a23.17,23.17,0,0,1-6.26-6.66c-.65-1-1.8-2.4-.63-3.45C136.49,55.54,138.49,55.93,139.61,56.18Z"/><path class="cls-4" d="M60.24,106.12c1.21-1,2.49-2.36,2.21-3.91s-1.75-2.35-3.16-2.87a18.33,18.33,0,0,0-17,2.32c-3.67,2.73-10.84,13.23-2.38,15,3.41.73,7.34-2,10.13-3.53A64.48,64.48,0,0,0,60.24,106.12Z"/><path class="cls-4" d="M83.06,116.91a17.88,17.88,0,0,0,14.47-.31A26.45,26.45,0,0,0,84.2,105.16a13.58,13.58,0,0,0-6-1c-1.4.13-3.56.64-4.46,2-1,1.51.44,3.21,1.31,4.39A19.36,19.36,0,0,0,83.06,116.91Z"/><path class="cls-4" d="M115.35,122.37l6.44-1.19a3.14,3.14,0,0,0,2.17-1,3,3,0,0,0-.26-3.12,6,6,0,0,0-4-2.83,5.67,5.67,0,0,0-4.65,1.4,5,5,0,0,0-1.61,2.68,3.68,3.68,0,0,0,.66,3,2.34,2.34,0,0,0,2.73.7"/><path class="cls-4" d="M148.54,114.88a4.79,4.79,0,0,0-4.1-4.42c-4-.38-5.87,5.1-2.94,7.86A4.27,4.27,0,0,0,148.54,114.88Z"/><path class="cls-4" d="M67.69,96.46c-.18-1.44-2.12-2.74-4.22-2.94-4-.37-5.7,3-2.7,4.89C63.41,100,68,98.91,67.69,96.46Z"/><path class="cls-3" d="M77,144.14A26,26,0,0,1,82,146.81c1.17.78,2.4,1.91,2.37,3.43a4.32,4.32,0,0,1-2.21,3.24,10.05,10.05,0,0,1-5.08,1.94,6.16,6.16,0,0,1-4.94-1.9,6.53,6.53,0,0,1-1.09-6.63C72.18,143.71,74.17,143,77,144.14Z"/></svg>