<svg id="Layer_1" data-name="Layer 1" xmlns="http://www.w3.org/2000/svg" viewBox="0 0 200 200"><defs><style>.cls-1{fill:#fcd87a;}.cls-2{fill:#231f20;}.cls-3{fill:#fff;}.cls-4{fill:#5d2b0e;}.cls-5{fill:#fee28a;}</style></defs><path class="cls-1" d="M97.09,39.39c-32,.53-52,23.51-69.94,45.93-4.24,5.29-16.38,29.79-3.83,51.94C45,175.56,76.64,174.13,101.19,174c27.17-.1,45.66-1.8,66.4-21.75,21.07-20.25,10.09-53.85,9.15-57.21C167.3,61.59,132.55,38.8,97.09,39.39Z"/><path class="cls-2" d="M20.13,110.19c5.82,9.38,29.3-6.27,81.06-7,48.4-.71,72.69,10.92,77.41,1.22,5.1-10.48-16-40.14-29.89-49.94-20-14.07-42-15.78-46-15.93-25.36-1-43.12,10.59-49.07,14.58C36.4,64.66,13.22,99.06,20.13,110.19Z"/><path class="cls-3" d="M103.46,87.86c5.06,0,10.25.87,14.62,3.44s7.81,7.12,8.11,12.2c.44,7.47-6,13.94-13,16.12s-14.74,1.09-22.09,0c-3.82-.58-7.7-1.17-11.23-2.74s-6.76-4.25-8.11-7.89C65.54,92.41,93.71,87.79,103.46,87.86Z"/><path class="cls-4" d="M68.35,90.76a6.16,6.16,0,0,1-4.87,2.8,6.26,6.26,0,0,1-5-1.89c-3-3.25-.4-8.13,3.73-8.38S71,86.39,68.35,90.76Z"/><path class="cls-4" d="M135.07,84.35a5.36,5.36,0,0,1,.32,5.63,6.43,6.43,0,0,1-10.31,1.18,5.39,5.39,0,0,1-.83-5.79C125.92,82.08,132.86,81.37,135.07,84.35Z"/><path class="cls-2" d="M146.5,32.44c7.5,1.64,13.85,8.22,15.6,16.17a11,11,0,0,1,.15,4.84A5,5,0,0,1,159.41,57c-1.87.69-3.89-.3-5.65-1.26l-14-7.65c-4.06-2.22-10.09-4.24-13.35-7.52C130.22,33.84,139.62,31,146.5,32.44Z"/><path class="cls-2" d="M67.09,30.9c-4-2-8.4-2.7-12.77-3.38-2.67-.41-5.56-.79-7.94.47-3.12,1.66-4.2,5.47-5,8.89-1,4.45-1.85,9.85,2.94,12.45a9.65,9.65,0,0,0,4.39,1,28.17,28.17,0,0,0,19.42-7.32c1.64-1.5,6.33-3.25,5.94-5.51C73.61,34.78,69.34,32,67.09,30.9Z"/><path class="cls-2" d="M99.14,92.08c2-.08,4.46,0,5.06,2.47a4.32,4.32,0,0,1-.31,2.74,16.85,16.85,0,0,1-2.57,4.71,5.37,5.37,0,0,1-3.63,1.93c-2.33.12-4.26-1.72-5.87-3.42C86.23,94.6,94,92.28,99.14,92.08Z"/><path class="cls-2" d="M96.57,103.92l.62,3.45c.08.49.21,1,.26,1.48,0-.2,0-.19,0,.06a.46.46,0,0,1,.11-.29c-.12.2-.12.2,0,0l-.26.24c-1.68,1.45-3.51,2.76-5.25,4.13a2,2,0,0,0,0,2.83,2.07,2.07,0,0,0,2.83,0l3-2.36a14.08,14.08,0,0,0,2.94-2.55c.92-1.28.56-2.76.31-4.2l-.69-3.87a2,2,0,0,0-2.46-1.4,2.05,2.05,0,0,0-1.4,2.46Z"/><path class="cls-2" d="M101.79,108.58l-.18-.11c-.14-.08-.37-.45.34.26-.14-.14.37.54.29.37l.27,1h0l-.27,1h0l-.72.72-1,.27-.49-.07s0,0,.07,0l.24.08c.26.08.51.18.75.28.77.29,1.52.6,2.28.91,1.83.73,3.64,1.48,5.49,2.16a13.16,13.16,0,0,0,2,.64,2,2,0,0,0,2.46-1.4,2,2,0,0,0-1.39-2.46,13,13,0,0,1-2.19-.7c-1.1-.41-2.19-.84-3.28-1.28l-3.23-1.3a21.67,21.67,0,0,0-2-.77,2.09,2.09,0,0,0-2.66,1.36A2.15,2.15,0,0,0,99.77,112a2,2,0,1,0,2-3.45Z"/><path class="cls-5" d="M132.91,72.27c1.76.21,3.73.81,4.44,2.41A3.5,3.5,0,0,1,136,78.8a5.89,5.89,0,0,1-4.56.71A17.16,17.16,0,0,1,127,77.73c-1.78-.92-4.8-3.22-2.4-5C126.24,71.48,131.05,72.05,132.91,72.27Z"/><path class="cls-5" d="M64.21,73.06a5.53,5.53,0,0,1,2.59.33,2.5,2.5,0,0,1,1.52,2.08c.09,1.6-1.46,2.77-2.81,3.53-1.93,1.09-4,2.16-6.14,2-2.3-.15-4.81-2.38-3.44-5S62,73.17,64.21,73.06Z"/></svg>