<svg id="Layer_1" data-name="Layer 1" xmlns="http://www.w3.org/2000/svg" viewBox="0 0 200 200"><defs><style>.cls-1{fill:#fcd87a;}.cls-2{fill:#231f20;}.cls-3{fill:#fff;}.cls-4{fill:#5d2b0e;}.cls-5{fill:#fee28a;}</style></defs><path class="cls-1" d="M97.52,31.53c-39.32.63-63.9,28-86,54.74C6.3,92.57-8.63,121.76,6.8,148.16c26.68,45.64,65.58,44,95.75,43.84,33.42-.12,56.15-2.15,81.66-25.92,25.9-24.14,12.41-64.17,11.24-68.18C183.85,58,141.12,30.83,97.52,31.53Z"/><path class="cls-2" d="M2.87,115.9c7.17,11.19,36-7.47,99.68-8.38,59.52-.85,89.39,13,95.19,1.45C204,96.48,178.1,61.13,161,49.45c-24.55-16.76-51.61-18.8-56.58-19-31.19-1.16-53,12.63-60.33,17.39C22.89,61.65-5.62,102.64,2.87,115.9Z"/><path class="cls-3" d="M105.35,89.29c6.22,0,12.6,1,18,4.1s9.6,8.48,10,14.55c.54,8.89-7.32,16.6-16.05,19.2s-18.13,1.31-27.16,0c-4.7-.69-9.47-1.39-13.81-3.26s-8.31-5.07-10-9.41C58.72,94.71,93.36,89.21,105.35,89.29Z"/><path class="cls-4" d="M62.17,92.75a7.6,7.6,0,0,1-6,3.33,7.75,7.75,0,0,1-6.09-2.25c-3.66-3.87-.49-9.68,4.58-10S65.43,87.54,62.17,92.75Z"/><path class="cls-4" d="M144.23,85.11a6.27,6.27,0,0,1,.39,6.71,7.85,7.85,0,0,1-5.83,3.79,8,8,0,0,1-6.86-2.38,6.28,6.28,0,0,1-1-6.9C133,82.4,141.5,81.56,144.23,85.11Z"/><path class="cls-2" d="M158.27,23.25c9.23,1.95,17,9.79,19.19,19.27a12.62,12.62,0,0,1,.18,5.76,6,6,0,0,1-3.49,4.27c-2.3.82-4.78-.35-7-1.5L150,41.94c-5-2.65-12.42-5.06-16.43-9C138.25,24.92,149.82,21.47,158.27,23.25Z"/><path class="cls-2" d="M60.62,21.41c-4.85-2.37-10.33-3.22-15.7-4-3.28-.49-6.84-.95-9.76.56-3.83,2-5.17,6.53-6.14,10.6-1.27,5.3-2.27,11.73,3.62,14.83A12.15,12.15,0,0,0,38,44.62a35.31,35.31,0,0,0,23.89-8.73c2-1.79,7.77-3.88,7.3-6.57C68.64,26,63.4,22.76,60.62,21.41Z"/><path class="cls-2" d="M100,94.32c2.49-.09,5.48,0,6.22,3a5,5,0,0,1-.38,3.26,20.17,20.17,0,0,1-3.16,5.61,6.65,6.65,0,0,1-4.46,2.3c-2.87.14-5.24-2-7.22-4.07C84.16,97.33,93.72,94.55,100,94.32Z"/><path class="cls-2" d="M97.32,108.33l.76,4.11.19,1,.09.52c0,.25,0,.3,0,.16,0,.26,0,.31,0,.16s.08-.12,0,.07c.26-.28-.21.16-.27.21s-.09.08,0,0l-.41.31-.82.62-1.63,1.25L92,119.22a2.07,2.07,0,0,0-.72,2.74,2,2,0,0,0,2.74.72l3.67-2.8,1.84-1.4a11.56,11.56,0,0,0,1.8-1.47,3.93,3.93,0,0,0,1-2.52,12.15,12.15,0,0,0-.35-2.47l-.87-4.75a2,2,0,0,0-2.46-1.4,2,2,0,0,0-1.4,2.46Z"/><path class="cls-2" d="M103.07,114.31l-.22-.13c-.14-.07-.4-.45.32.25-.14-.14.11,0,.28.37l.27,1h0l-.27,1h0l-.72.72a2,2,0,0,1-1.46.2l.09,0c.1,0,.21.06.3.09.31.1.62.22.93.34.94.35,1.87.71,2.8,1.08,2.24.88,4.48,1.77,6.75,2.58a16.17,16.17,0,0,0,2.48.76,2.05,2.05,0,0,0,2.46-1.4,2,2,0,0,0-1.39-2.46,17.17,17.17,0,0,1-2.7-.83c-1.35-.49-2.69-1-4-1.52l-4-1.56c-.83-.32-1.65-.68-2.51-.92a2.1,2.1,0,0,0-2.7,1.36,2.2,2.2,0,0,0,1.26,2.5,2,2,0,0,0,2-3.46Z"/><path class="cls-5" d="M141.57,70.71c2.16.26,4.58,1,5.46,2.88a4.12,4.12,0,0,1-1.69,4.9,7.48,7.48,0,0,1-5.61.86,22.34,22.34,0,0,1-5.39-2.13c-2.19-1.1-5.89-3.83-3-6C133.37,69.77,139.28,70.45,141.57,70.71Z"/><path class="cls-5" d="M57.09,71.65a7.1,7.1,0,0,1,3.18.4,3,3,0,0,1,1.87,2.48c.11,1.91-1.8,3.29-3.45,4.2-2.39,1.3-4.94,2.57-7.56,2.41-2.83-.18-5.92-2.84-4.23-6S54.31,71.79,57.09,71.65Z"/></svg>