<svg id="Layer_1" data-name="Layer 1" xmlns="http://www.w3.org/2000/svg" preserveAspectRatio="none" viewBox="0 0 400 400"><defs><style>.cls-1{fill:#fcd87a;}.cls-2{fill:#fff;}</style></defs><path class="cls-1" d="M359.37,290.17q-.71-32.35-3-64.66C351.08,150.83,339.23,74,327.59,0L188.15,18.94l-86.9,11.8C66.65,35.44,31.41,40.32,0,54.7A1788.53,1788.53,0,0,1,23.86,340.09C129.09,303.2,253.76,326.1,359.37,290.17Z"/><path class="cls-1" d="M400,345.3q-.74-35.46-3.14-70.87c-5.56-81.84-18-166-30.2-247.14L220.43,48.05,129.3,61C93,66.14,56.05,71.48,23.11,87.24A2046.65,2046.65,0,0,1,48.13,400C158.49,359.58,289.24,384.68,400,345.3Z"/><path class="cls-2" d="M388.12,294.57q-3.63-32.88-8.82-65.56c-12-75.55-30.73-152.67-49-227L193.49,33.57,108.22,53.26C74.28,61.09,39.71,69.17,9.8,86.58A1871.5,1871.5,0,0,1,59.3,375C160.51,328.15,286.44,340.46,388.12,294.57Z"/></svg>